<svg width="514" height="747" viewBox="0 0 514 747" fill="none" xmlns="http://www.w3.org/2000/svg">
<rect width="514" height="112" fill="#253237"/>
<rect x="3" y="394" width="294" height="53" fill="#253237"/>
<rect x="297" y="194" width="215" height="60" fill="#253237"/>
<rect width="348" height="130" transform="matrix(1 0 0 -1 164 447)" fill="#253237"/>
<rect x="357" y="513" width="15" height="230" fill="#253237"/>
<rect x="422" y="435" width="90" height="235" fill="#253237"/>
<rect x="357" y="670" width="24" height="80" transform="rotate(-90 357 670)" fill="#253237"/>
<rect x="80" y="427" width="84" height="104" fill="#253237"/>
<rect y="469" width="84" height="104" fill="#253237"/>
<rect x="28" y="565" width="282" height="104" fill="#253237"/>
<rect x="106" y="643" width="58" height="104" fill="#253237"/>
<path d="M2 181H54.6667V163.6H23.9333V159.933H53.4667V146.133H23.9333V142.4H54.6667V125H2V181ZM86.875 182.867C107.208 183 116.942 177.067 116.942 164.133C116.942 147.533 100.208 148.2 88.8083 146.333L82.9417 145.4C79.675 145 79.8083 143.2 79.8083 142.8C79.8083 141.467 81.3417 140.067 86.5417 140.067C92.675 140.067 95.275 141.733 95.8083 144.533H115.342C115.942 127.133 104.075 123.133 87.0083 123.133C67.8083 123.133 58.7417 130.267 58.7417 141.667C58.7417 157.4 72.9417 157.667 83.5417 159.267L90.9417 160.4C95.6083 160.933 95.1417 162.8 95.1417 163.2C95.1417 164.6 92.875 166 86.875 165.867C79.675 165.8 77.2083 164.133 77.2083 161.333H57.5417C56.8083 176.8 66.0083 182.8 86.875 182.867ZM179.218 125H118.151V143.2H137.751V181H159.618V143.2H179.218V125ZM244.059 181L234.593 163.067C238.793 159.733 241.859 154.533 241.859 147.267C241.859 131.4 232.593 125 216.726 125H182.859V181H204.793V168H216.059L222.593 181H244.059ZM204.793 143.133H215.059C218.393 143.133 219.859 144.867 219.859 147.467C219.859 150.067 218.393 151.8 215.059 151.8H204.793V143.133ZM247.156 181H299.823V163.6H269.09V159.933H298.623V146.133H269.09V142.4H299.823V125H247.156V181ZM303.797 181H353.997V162.733H325.73V125H303.797V181ZM358.328 181H408.528V162.733H380.261V125H358.328V181ZM457.956 181H480.556L460.69 125H430.023L410.156 181H432.756L434.623 174.933H456.156L457.956 181ZM439.49 158.867L443.556 145.467H447.223L451.29 158.867H439.49Z" fill="#253237"/>
<path d="M34.7333 194H5V250H34.7333C58.2667 250 66.0667 238.133 66.0667 222C66.0667 205.733 58.2667 194 34.7333 194ZM34.8 231.667H27V212.267H34.8C39.5333 212.267 44.0667 214.2 44.0667 222C44.0667 229.667 39.5333 231.667 34.8 231.667ZM109.628 250H132.228L112.361 194H81.6948L61.8281 250H84.4281L86.2948 243.933H107.828L109.628 250ZM91.1615 227.867L95.2281 214.467H98.8948L102.961 227.867H91.1615ZM134.219 250H155.085V231.133H156.752L160.419 250H176.419L180.085 231.133H181.752V250H202.619V194H175.152L169.219 221H167.619L161.685 194H134.219V250ZM206.641 250H227.507V231.133H229.174L232.841 250H248.841L252.507 231.133H254.174V250H275.041V194H247.574L241.641 221H240.041L234.107 194H206.641V250Z" fill="#253237"/>
<rect x="236" y="581" width="48" height="22" fill="#F1FAEE"/>
<path d="M5.275 305H18.5775V292.973H19.64L21.9775 305H32.1775L34.515 292.973H35.5775V305H48.88V269.3H31.37L27.5875 286.512H26.5675L22.785 269.3H5.275V305ZM51.4439 305H85.0189V293.907H65.4264V291.57H84.2539V282.772H65.4264V280.392H85.0189V269.3H51.4439V305ZM106.507 269.3H87.5523V305H106.507C121.51 305 126.482 297.435 126.482 287.15C126.482 276.78 121.51 269.3 106.507 269.3ZM106.55 293.312H101.577V280.945H106.55C109.567 280.945 112.457 282.177 112.457 287.15C112.457 292.038 109.567 293.312 106.55 293.312ZM128.591 305H142.574V269.3H128.591V305ZM183.844 269.3H144.914V280.902H157.409V305H171.349V280.902H183.844V269.3ZM186.166 305H219.741V293.907H200.148V291.57H218.976V282.772H200.148V280.392H219.741V269.3H186.166V305ZM261.289 305L255.254 293.567C257.932 291.442 259.887 288.127 259.887 283.495C259.887 273.38 253.979 269.3 243.864 269.3H222.274V305H236.257V296.712H243.439L247.604 305H261.289ZM236.257 280.86H242.802C244.927 280.86 245.862 281.965 245.862 283.622C245.862 285.28 244.927 286.385 242.802 286.385H236.257V280.86ZM302.278 305L296.243 293.567C298.921 291.442 300.876 288.127 300.876 283.495C300.876 273.38 294.968 269.3 284.853 269.3H263.263V305H277.246V296.712H284.428L288.593 305H302.278ZM277.246 280.86H283.791C285.916 280.86 286.851 281.965 286.851 283.622C286.851 285.28 285.916 286.385 283.791 286.385H277.246V280.86ZM332.803 305H347.21L334.545 269.3H314.995L302.33 305H316.738L317.928 301.132H331.655L332.803 305ZM321.03 290.89L323.623 282.347H325.96L328.553 290.89H321.03ZM348.479 305H362.079V288.85H363.354L372.407 305H388.004V269.3H374.404V285.45H373.172L364.459 269.3H348.479V305ZM390.564 305H424.139V293.907H404.547V291.57H423.374V282.772H404.547V280.392H424.139V269.3H390.564V305ZM455.223 305H469.63L456.965 269.3H437.415L424.75 305H439.157L440.348 301.132H454.075L455.223 305ZM443.45 290.89L446.043 282.347H448.38L450.972 290.89H443.45ZM470.899 305H484.499V288.85H485.774L494.827 305H510.424V269.3H496.824V285.45H495.592L486.879 269.3H470.899V305Z" fill="#253237"/>
<path d="M51.755 335.8H1.375V350.815H17.545V382H35.585V350.815H51.755V335.8ZM78.8597 383.54C95.2497 383.54 105.535 373.86 105.535 358.9C105.535 343.885 95.2497 334.26 78.8597 334.26C62.4147 334.26 52.1297 343.885 52.1297 358.9C52.1297 373.86 62.4147 383.54 78.8597 383.54ZM78.8597 367.975C74.2397 367.975 70.1147 365.005 70.1147 358.9C70.1147 352.74 74.2397 349.825 78.8597 349.825C83.4247 349.825 87.6047 352.74 87.6047 358.9C87.6047 365.005 83.4247 367.975 78.8597 367.975ZM134.612 383.54C151.002 383.54 161.287 373.86 161.287 358.9C161.287 343.885 151.002 334.26 134.612 334.26C118.167 334.26 107.882 343.885 107.882 358.9C107.882 373.86 118.167 383.54 134.612 383.54ZM134.612 367.975C129.992 367.975 125.867 365.005 125.867 358.9C125.867 352.74 129.992 349.825 134.612 349.825C139.177 349.825 143.357 352.74 143.357 358.9C143.357 365.005 139.177 367.975 134.612 367.975Z" fill="#253237"/>
</svg>
