<svg width="70" height="50" viewBox="0 0 70 50" fill="none" xmlns="http://www.w3.org/2000/svg">
<rect width="50" height="50" fill="#E63946"/>
<path d="M27.1219 7.0017C29.3846 7.0017 31.6472 7.0017 33.9099 7.0017C33.9689 7.02558 34.0312 7.01741 34.0921 7.01741C35.1159 7.01965 36.1395 7.02205 37.1632 7.02286C43.6583 7.02766 50.1534 7.03183 56.6484 7.03712C58.1634 7.0384 59.6785 7.0384 61.1934 7.04705C63.3175 7.05907 65.4414 7.06292 67.5656 7.06035C68.3027 7.05955 69.0395 7.04497 69.7764 7.03071C69.8275 7.02975 69.8787 7.02702 69.9296 7.02222C69.9432 7.02093 69.9558 7.00875 69.969 7.00154C69.9784 7.00827 70 6.986 70 7.01693C69.9997 9.74794 69.9997 12.479 69.9997 15.21C69.945 15.2286 69.9022 15.2659 69.86 15.3026C69.802 15.3529 69.7443 15.404 69.6913 15.4595C69.5567 15.6 69.4228 15.7413 69.2922 15.8855C69.1545 16.0375 69.014 16.1863 68.8692 16.3312C66.2736 18.9284 63.6784 21.5259 61.0836 24.1241C60.9461 24.2617 60.8134 24.4042 60.6788 24.5447C60.5228 24.7074 60.37 24.8729 60.2107 25.0323C58.4125 26.8336 56.6135 28.6341 54.8144 30.4344C54.5574 30.6916 54.2983 30.9467 54.0407 31.2033C53.591 31.6516 53.1403 32.099 52.693 32.5498C52.52 32.7243 52.3552 32.9068 52.1867 33.0858C52.1199 33.1566 52.0551 33.2292 51.9865 33.2981C51.4119 33.8752 50.8371 34.4517 50.2615 35.0278C50.1022 35.1872 49.9401 35.3436 49.7796 35.5018C49.7029 35.5773 49.6261 35.6526 49.5516 35.73C49.5127 35.7704 49.4778 35.8149 49.4423 35.8585C49.4371 35.8647 49.4354 35.8779 49.4382 35.8852C49.4411 35.8926 49.4517 35.9016 49.4594 35.9019C49.5207 35.9045 49.582 35.9061 49.6434 35.9061C55.1308 35.9062 60.618 35.9062 66.1054 35.9062C66.1669 35.9062 66.2283 35.9072 66.2896 35.9058C66.4892 35.9014 66.6891 35.9018 66.8882 35.8901C67.1234 35.8763 67.3587 35.8718 67.5941 35.8711C68.1263 35.8699 68.6588 35.8667 69.191 35.8651C69.3035 35.8647 69.4162 35.8689 69.5289 35.8697C69.6063 35.8702 69.6814 35.8872 69.7563 35.9034C69.7859 35.9098 69.8144 35.9229 69.8417 35.9365C69.8809 35.9561 69.9048 35.988 69.9053 36.0338C69.9059 36.0902 69.9064 36.1464 69.9064 36.2028C69.9064 38.9388 69.9064 41.6748 69.9064 44.4108C69.9064 44.4518 69.9051 44.4928 69.9065 44.5337C69.9094 44.6113 69.8974 44.6866 69.8789 44.7616C69.8675 44.8075 69.8534 44.8242 69.808 44.8257C69.7415 44.8277 69.675 44.8276 69.6084 44.8276C59.0636 44.8276 48.519 44.8276 37.9742 44.8281C37.5954 44.8281 37.2168 44.8338 36.838 44.8383C36.536 44.842 36.2342 44.8441 35.9325 44.8205C35.692 44.8016 35.4547 44.7675 35.2231 44.6994C34.8552 44.5912 34.4881 44.4808 34.1206 44.3712C33.9785 44.3289 33.8371 44.2852 33.6916 44.2544C33.5388 44.2222 33.3872 44.2191 33.2352 44.2547C33.1555 44.2733 33.0758 44.2916 32.9966 44.3119C32.7043 44.3868 32.4134 44.4667 32.1199 44.5364C31.7865 44.6156 31.4495 44.6776 31.1109 44.7306C30.8279 44.775 30.5452 44.8204 30.2603 44.8524C30.1587 44.8638 30.0572 44.8782 29.9554 44.8875C29.7517 44.9063 29.5478 44.9256 29.3438 44.9391C29.0986 44.9555 28.8531 44.9659 28.6078 44.9788C28.5719 44.9808 28.5359 44.9813 28.5036 45C28.0531 45 27.6026 45 27.1521 45C27.1252 44.983 27.0947 44.9795 27.064 44.9774C26.9058 44.966 26.7477 44.9511 26.5893 44.9439C26.308 44.9313 26.0281 44.9019 25.7488 44.8694C25.434 44.8327 25.1207 44.785 24.8083 44.7305C24.3498 44.6505 23.895 44.5534 23.4443 44.438C22.1229 44.0999 20.8487 43.6318 19.6229 43.0332C18.6555 42.5608 17.7326 42.0137 16.8655 41.3744C16.4987 41.1039 16.1471 40.8143 15.7958 40.5244C15.2146 40.0447 14.6666 39.5301 14.1649 38.967C13.8653 38.6307 13.5682 38.2921 13.2689 37.9554C13.1225 37.7907 12.9855 37.6188 12.8549 37.4414C12.5331 37.0042 12.233 36.5522 11.9341 36.0995C11.9171 36.0739 11.9016 36.0474 11.8856 36.0211C11.6124 35.576 11.3594 35.1196 11.1112 34.6604C10.9822 34.4216 10.8654 34.1771 10.7612 33.9263C10.6828 33.7374 10.6018 33.5492 10.5197 33.3618C10.3862 33.057 10.2553 32.7512 10.1487 32.4359C9.97813 31.9317 9.81889 31.4241 9.67678 30.9112C9.55388 30.4673 9.44457 30.0201 9.35639 29.5677C9.30454 29.3014 9.26021 29.0338 9.22117 28.7654C9.19524 28.5881 9.17492 28.4099 9.15635 28.2319C9.13923 28.0689 9.12787 27.9055 9.11378 27.7424C9.0877 27.4413 9.07154 27.1397 9.06161 26.8376C9.05681 26.6893 9.05377 26.5407 9.04961 26.3923C9.04721 26.3103 9.03601 26.2298 9 26.1547C9 25.8472 9 25.5398 9 25.2323C9.03489 25.1796 9.05041 25.1214 9.05169 25.0585C9.05281 25.0022 9.05537 24.9458 9.05905 24.8896C9.0725 24.6853 9.08242 24.4805 9.10162 24.2766C9.12323 24.0473 9.15379 23.819 9.17972 23.59C9.21477 23.2796 9.26149 22.9708 9.31591 22.6633C9.39608 22.2097 9.49466 21.7599 9.60957 21.3136C10.0391 19.6439 10.6722 18.0568 11.5314 16.5606C11.8324 16.0363 12.152 15.5242 12.5041 15.0331C12.8533 14.5462 13.2217 14.074 13.6035 13.6122C13.6851 13.5135 13.7727 13.4204 13.8652 13.3316C14.5076 12.7147 15.1496 12.0973 15.7907 11.4789C15.9125 11.3614 16.0381 11.2493 16.1735 11.1477C16.3207 11.0369 16.4652 10.9225 16.6117 10.8107C17.0063 10.5093 17.4091 10.2192 17.8332 9.96042C18.1344 9.77662 18.4401 9.60004 18.7432 9.41896C19.3591 9.05104 20.001 8.73569 20.6642 8.46328C21.8257 7.98623 23.0209 7.61832 24.251 7.36529C24.6971 7.27364 25.1451 7.19592 25.5982 7.14849C25.7 7.13791 25.8014 7.12541 25.9032 7.11484C26.0609 7.09849 26.2185 7.07974 26.3764 7.06772C26.5906 7.05138 26.8052 7.04032 27.0196 7.0267C27.0399 7.02542 27.0608 7.02446 27.0804 7.01997C27.0947 7.01661 27.108 7.00795 27.1219 7.0017Z" fill="#F1FAEE"/>
</svg>
