<svg width="439" height="493" viewBox="0 0 439 493" fill="none" xmlns="http://www.w3.org/2000/svg">
<path d="M286 343H436V493H286V343Z" fill="#253237"/>
<path d="M0 292H76V493H0V292Z" fill="#253237"/>
<path d="M286.184 291.962H436.222V343.364H286.184V291.962Z" fill="#253237"/>
<path d="M94.88 77H122.48L140.36 26.6H120.02L109.7 58.52H107.72L97.34 26.6H77L94.88 77ZM171.348 77H191.688L173.808 26.6H146.208L128.328 77H148.668L150.348 71.54H169.728L171.348 77ZM154.728 57.08L158.388 45.02H161.688L165.348 57.08H154.728ZM193.48 77H212.68V54.2H214.48L227.26 77H249.28V26.6H230.08V49.4H228.34L216.04 26.6H193.48V77ZM278.094 78.68C296.394 78.8 305.154 73.46 305.154 61.82C305.154 46.88 290.094 47.48 279.834 45.8L274.554 44.96C271.614 44.6 271.734 42.98 271.734 42.62C271.734 41.42 273.114 40.16 277.794 40.16C283.314 40.16 285.654 41.66 286.134 44.18H303.714C304.254 28.52 293.574 24.92 278.214 24.92C260.934 24.92 252.774 31.34 252.774 41.6C252.774 55.76 265.554 56 275.094 57.44L281.754 58.46C285.954 58.94 285.534 60.62 285.534 60.98C285.534 62.24 283.494 63.5 278.094 63.38C271.614 63.32 269.394 61.82 269.394 59.3H251.694C251.034 73.22 259.314 78.62 278.094 78.68Z" fill="#253237"/>
<path d="M125.811 88.0266H77.7207V102.359H93.1557V132.127H110.376V102.359H125.811V88.0266ZM128.679 132.127H145.951V88.0266H128.679V132.127ZM149.104 132.127H165.537V117.269H166.849L169.737 132.127H182.337L185.224 117.269H186.537V132.127H202.969V88.0266H181.339L176.667 109.289H175.407L170.734 88.0266H149.104V132.127ZM206.137 132.127H247.612V118.424H223.409V115.537H246.667V104.669H223.409V101.729H247.612V88.0266H206.137V132.127ZM250.741 132.127H290.274V117.742H268.014V88.0266H250.741V132.127ZM293.684 132.127H335.159V118.424H310.957V115.537H334.214V104.669H310.957V101.729H335.159V88.0266H293.684V132.127ZM360.523 133.597C376.536 133.702 384.201 129.029 384.201 118.844C384.201 105.772 371.023 106.297 362.046 104.827L357.426 104.092C354.853 103.777 354.958 102.359 354.958 102.044C354.958 100.994 356.166 99.8916 360.261 99.8916C365.091 99.8916 367.138 101.204 367.558 103.409H382.941C383.413 89.7066 374.068 86.5566 360.628 86.5566C345.508 86.5566 338.368 92.1741 338.368 101.152C338.368 113.542 349.551 113.752 357.898 115.012L363.726 115.904C367.401 116.324 367.033 117.794 367.033 118.109C367.033 119.212 365.248 120.314 360.523 120.209C354.853 120.157 352.911 118.844 352.911 116.639H337.423C336.846 128.819 344.091 133.544 360.523 133.597ZM409.188 133.597C425.201 133.702 432.866 129.029 432.866 118.844C432.866 105.772 419.688 106.297 410.711 104.827L406.091 104.092C403.518 103.777 403.623 102.359 403.623 102.044C403.623 100.994 404.831 99.8916 408.926 99.8916C413.756 99.8916 415.803 101.204 416.223 103.409H431.606C432.078 89.7066 422.733 86.5566 409.293 86.5566C394.173 86.5566 387.033 92.1741 387.033 101.152C387.033 113.542 398.216 113.752 406.563 115.012L412.391 115.904C416.066 116.324 415.698 117.794 415.698 118.109C415.698 119.212 413.913 120.314 409.188 120.209C403.518 120.157 401.576 118.844 401.576 116.639H386.088C385.511 128.819 392.756 133.544 409.188 133.597Z" fill="#253237"/>
<path d="M101.983 210.371C113.402 210.371 124.872 205.411 125.853 189.342H109.733C108.958 193.682 106.22 195.749 101.983 195.749C97.6432 195.749 94.0782 192.597 94.0782 187.224C94.0782 181.851 97.6432 178.699 101.983 178.699C106.22 178.699 108.958 180.714 109.733 184.951H125.853C124.872 168.986 113.298 164.077 101.983 164.077C86.9999 164.077 77.1832 173.119 77.1832 187.224C77.1832 201.277 86.9999 210.371 101.983 210.371ZM128.152 208.924H167.057V194.767H145.15V165.524H128.152V208.924ZM205.363 208.924H222.878L207.482 165.524H183.715L168.318 208.924H185.833L187.28 204.222H203.968L205.363 208.924ZM191.052 191.771L194.203 181.386H197.045L200.197 191.771H191.052ZM244.184 210.371C259.942 210.474 267.485 205.876 267.485 195.852C267.485 182.987 254.517 183.504 245.682 182.057L241.135 181.334C238.604 181.024 238.707 179.629 238.707 179.319C238.707 178.286 239.895 177.201 243.925 177.201C248.679 177.201 250.694 178.492 251.107 180.662H266.245C266.71 167.177 257.514 164.077 244.287 164.077C229.407 164.077 222.38 169.606 222.38 178.441C222.38 190.634 233.385 190.841 241.6 192.081L247.335 192.959C250.952 193.372 250.59 194.819 250.59 195.129C250.59 196.214 248.834 197.299 244.184 197.196C238.604 197.144 236.692 195.852 236.692 193.682H221.45C220.882 205.669 228.012 210.319 244.184 210.371ZM292.076 210.371C307.835 210.474 315.378 205.876 315.378 195.852C315.378 182.987 302.41 183.504 293.575 182.057L289.028 181.334C286.496 181.024 286.6 179.629 286.6 179.319C286.6 178.286 287.788 177.201 291.818 177.201C296.571 177.201 298.586 178.492 299 180.662H314.138C314.603 167.177 305.406 164.077 292.18 164.077C277.3 164.077 270.273 169.606 270.273 178.441C270.273 190.634 281.278 190.841 289.493 192.081L295.228 192.959C298.845 193.372 298.483 194.819 298.483 195.129C298.483 196.214 296.726 197.299 292.076 197.196C286.496 197.144 284.585 195.852 284.585 193.682H269.343C268.775 205.669 275.905 210.319 292.076 210.371ZM317.603 208.924H334.601V165.524H317.603V208.924ZM361.729 210.371C373.148 210.371 384.618 205.411 385.599 189.342H369.479C368.704 193.682 365.966 195.749 361.729 195.749C357.389 195.749 353.824 192.597 353.824 187.224C353.824 181.851 357.389 178.699 361.729 178.699C365.966 178.699 368.704 180.714 369.479 184.951H385.599C384.618 168.986 373.044 164.077 361.729 164.077C346.746 164.077 336.929 173.119 336.929 187.224C336.929 201.277 346.746 210.371 361.729 210.371ZM409.598 210.371C425.356 210.474 432.899 205.876 432.899 195.852C432.899 182.987 419.931 183.504 411.096 182.057L406.549 181.334C404.018 181.024 404.121 179.629 404.121 179.319C404.121 178.286 405.309 177.201 409.339 177.201C414.093 177.201 416.108 178.492 416.521 180.662H431.659C432.124 167.177 422.928 164.077 409.701 164.077C394.821 164.077 387.794 169.606 387.794 178.441C387.794 190.634 398.799 190.841 407.014 192.081L412.749 192.959C416.366 193.372 416.004 194.819 416.004 195.129C416.004 196.214 414.248 197.299 409.598 197.196C404.018 197.144 402.106 195.852 402.106 193.682H386.864C386.296 205.669 393.426 210.319 409.598 210.371Z" fill="#253237"/>
<path d="M124.744 244.743H108.737L101.691 257.623H100.617L93.6174 244.743H77.564L93.4774 271.903V283.943H108.784V272.043L124.744 244.743ZM143.779 285.25C157.686 285.25 166.412 277.036 166.412 264.343C166.412 251.603 157.686 243.436 143.779 243.436C129.826 243.436 121.099 251.603 121.099 264.343C121.099 277.036 129.826 285.25 143.779 285.25ZM143.779 272.043C139.859 272.043 136.359 269.523 136.359 264.343C136.359 259.116 139.859 256.643 143.779 256.643C147.652 256.643 151.199 259.116 151.199 264.343C151.199 269.523 147.652 272.043 143.779 272.043ZM189.735 285.25C204.155 285.25 210.969 279.463 210.969 266.21V244.743H195.662V265.976C195.662 269.896 194.029 272.416 189.735 272.416C185.442 272.416 183.949 269.896 183.949 265.976V244.743H168.502V266.35C168.502 279.463 175.315 285.25 189.735 285.25ZM213.783 283.943H228.717V266.21H230.117L240.057 283.943H257.183V244.743H242.25V262.476H240.897L231.33 244.743H213.783V283.943ZM303.161 261.636H281.648V268.636H288.414C287.061 272.23 282.768 272.043 282.068 272.043C277.914 272.043 274.554 269.196 274.554 264.343C274.554 259.49 277.774 256.643 282.581 256.643C285.801 256.643 287.714 258.37 288.041 259.256H303.254C302.088 248.243 292.008 243.436 282.208 243.436C268.068 243.436 259.294 251.603 259.294 264.343C259.294 277.036 268.674 285.25 280.808 285.25C287.434 285.25 292.194 282.823 294.994 279.463H295.274L295.508 283.943H303.161V261.636Z" fill="#253237"/>
<path d="M103.555 341.54C119.945 341.54 130.23 331.86 130.23 316.9C130.23 301.885 119.945 292.26 103.555 292.26C87.11 292.26 76.825 301.885 76.825 316.9C76.825 331.86 87.11 341.54 103.555 341.54ZM103.555 325.975C98.935 325.975 94.81 323.005 94.81 316.9C94.81 310.74 98.935 307.825 103.555 307.825C108.12 307.825 112.3 310.74 112.3 316.9C112.3 323.005 108.12 325.975 103.555 325.975ZM132.693 340H150.293V319.1H151.943L163.658 340H183.843V293.8H166.243V314.7H164.648L153.373 293.8H132.693V340ZM187.156 340H230.606V325.645H205.251V322.62H229.616V311.235H205.251V308.155H230.606V293.8H187.156V340ZM257.178 341.54C273.953 341.65 281.983 336.755 281.983 326.085C281.983 312.39 268.178 312.94 258.773 311.4L253.933 310.63C251.238 310.3 251.348 308.815 251.348 308.485C251.348 307.385 252.613 306.23 256.903 306.23C261.963 306.23 264.108 307.605 264.548 309.915H280.663C281.158 295.56 271.368 292.26 257.288 292.26C241.448 292.26 233.968 298.145 233.968 307.55C233.968 320.53 245.683 320.75 254.428 322.07L260.533 323.005C264.383 323.445 263.998 324.985 263.998 325.315C263.998 326.47 262.128 327.625 257.178 327.515C251.238 327.46 249.203 326.085 249.203 323.775H232.978C232.373 336.535 239.963 341.485 257.178 341.54Z" fill="#253237"/>
<path d="M0 8H76V79H0V8Z" fill="#253237"/>
<path d="M0 154.427H76.4082V216.943H0V154.427Z" fill="#253237"/>
<path d="M0 134.978H76.4082V159.984H0V134.978Z" fill="#253237"/>
<path d="M243.117 134.978H436.222V159.984H243.117V134.978Z" fill="#253237"/>
<path d="M140.313 212.775H436.222V237.782H140.313V212.775Z" fill="#253237"/>
<path d="M43.0664 212.775H76.4082V237.782H43.0664V212.775Z" fill="#253237"/>
<path d="M307 8H436V79H307V8Z" fill="#253237"/>
<path d="M79.8115 156.421H86.6657V153.15H90.3115C95.124 153.15 98.1449 151.088 98.1449 146.025C98.1449 140.963 95.124 138.921 90.2699 138.921H79.8115V156.421ZM86.6657 147.483V144.588H89.6657C90.5824 144.588 91.2282 145.067 91.2282 146.025C91.2282 146.983 90.5824 147.483 89.624 147.483H86.6657ZM118.321 156.421L115.363 150.817C116.675 149.775 117.634 148.15 117.634 145.879C117.634 140.921 114.738 138.921 109.78 138.921H99.1963V156.421H106.05V152.358H109.571L111.613 156.421H118.321ZM106.05 144.588H109.259C110.3 144.588 110.759 145.129 110.759 145.942C110.759 146.754 110.3 147.296 109.259 147.296H106.05V144.588ZM128.589 157.004C134.797 157.004 138.693 153.338 138.693 147.671C138.693 141.983 134.797 138.338 128.589 138.338C122.36 138.338 118.464 141.983 118.464 147.671C118.464 153.338 122.36 157.004 128.589 157.004ZM128.589 151.108C126.839 151.108 125.276 149.983 125.276 147.671C125.276 145.338 126.839 144.233 128.589 144.233C130.318 144.233 131.901 145.338 131.901 147.671C131.901 149.983 130.318 151.108 128.589 151.108ZM153.894 157.004C160.248 157.046 163.289 155.192 163.289 151.15C163.289 145.963 158.06 146.171 154.498 145.588L152.664 145.296C151.644 145.171 151.685 144.608 151.685 144.483C151.685 144.067 152.164 143.629 153.789 143.629C155.706 143.629 156.519 144.15 156.685 145.025H162.789C162.977 139.588 159.269 138.338 153.935 138.338C147.935 138.338 145.102 140.567 145.102 144.129C145.102 149.046 149.539 149.129 152.852 149.629L155.164 149.983C156.623 150.15 156.477 150.733 156.477 150.858C156.477 151.296 155.769 151.733 153.894 151.692C151.644 151.671 150.873 151.15 150.873 150.275H144.727C144.498 155.108 147.373 156.983 153.894 157.004ZM184.332 156.421L177.207 146.713L184.207 138.921H176.645L171.437 144.879H171.02V138.921H164.187V156.421H171.02V152.983L172.999 150.838H173.374L177.395 156.421H184.332ZM199.104 156.421H206.167L199.959 138.921H190.375L184.167 156.421H191.229L191.813 154.525H198.542L199.104 156.421ZM193.334 149.504L194.604 145.317H195.75L197.021 149.504H193.334ZM222.228 138.921H203.145V144.608H209.27V156.421H216.103V144.608H222.228V138.921ZM223.366 156.421H239.825V150.983H230.22V149.838H239.45V145.525H230.22V144.358H239.825V138.921H223.366V156.421Z" fill="#253237"/>
<path d="M79.8115 234.218H86.6657V228.468H95.874V223.614H86.6657V222.406H96.2282V216.718H79.8115V234.218ZM106.934 234.802C113.142 234.802 117.038 231.135 117.038 225.468C117.038 219.781 113.142 216.135 106.934 216.135C100.704 216.135 96.8086 219.781 96.8086 225.468C96.8086 231.135 100.704 234.802 106.934 234.802ZM106.934 228.906C105.184 228.906 103.621 227.781 103.621 225.468C103.621 223.135 105.184 222.031 106.934 222.031C108.663 222.031 110.246 223.135 110.246 225.468C110.246 227.781 108.663 228.906 106.934 228.906ZM137.096 234.218L134.137 228.614C135.45 227.573 136.408 225.948 136.408 223.677C136.408 218.718 133.512 216.718 128.554 216.718H117.971V234.218H124.825V230.156H128.346L130.387 234.218H137.096ZM124.825 222.385H128.033C129.075 222.385 129.533 222.927 129.533 223.739C129.533 224.552 129.075 225.093 128.033 225.093H124.825V222.385Z" fill="#253237"/>
<rect x="336" y="8" width="52" height="71" fill="#F1FAEE"/>
<rect x="375.095" y="425.329" width="62.5158" height="62.5158" fill="#F1FAEE"/>
<rect x="312.579" y="404.491" width="62.5158" height="62.5158" fill="#F1FAEE"/>
</svg>
